# xmcd
#
# Track frame offsets:
#	150
#	14940
#	28405
#	47519
#	64315
#	79489
#	97267
#	112026
#	131974
#	144896
#	159422
#	172819
#
# Disc length: 2602 seconds
#
# Revision: 0
# Processed by: cddbd v1.5.2PL0 Copyright (c) Steve Scherf et al.
# Submitted via: EasyCDDAExtractor 11.1.0.1
#
DISCID=b00a280c
DTITLE=Carlene Carter - Stronger (Pre-Release)
DYEAR=2006
DGENRE=Country
TTITLE0=The Bitter End
TTITLE1=Light Of Your Love
TTITLE2=Change Your Heart
TTITLE3=Bring Love
TTITLE4=I'm So Cool
TTITLE5=Spider Lace
TTITLE6=On To You
TTITLE7=Judgement Day
TTITLE8=Break My Little Heart
TTITLE9=It Takes One To Know Me
TTITLE10=Why Be Blue
TTITLE11=Stronger
EXTD=
EXTT0=
EXTT1=
EXTT2=
EXTT3=
EXTT4=
EXTT5=
EXTT6=
EXTT7=
EXTT8=
EXTT9=
EXTT10=
EXTT11=
PLAYORDER=
